<svg xmlns="http://www.w3.org/2000/svg" enable-background="new 0 0 480 480" height="480" width="480"><rect id="backgroundrect" width="100%" height="100%" x="0" y="0" fill="none" stroke="none"/><g class="currentLayer" style=""><title>Layer 1</title><path d="m288 96c0 10.2-17.7 26.861-50.5 37.663l5 15.2c37.358-12.3 61.5-33.051 61.5-52.86z" id="svg_1" class="" fill="#04b804" fill-opacity="1" stroke="#000000" stroke-opacity="1"/><path d="m58.018,356.382 c31.45,17.165 72.995,26.618 116.982,26.618 v-16 c-82.393,0 -152,-36.2 -152,-79.04 v-23.61 c7.431,9.035 17.341,17.391000000000002 29.535,24.754 c27.789,16.779 65.444,27.238 106.029,29.451 l0.8720000000000001,-15.977 c-76.506,-4.171 -136.436,-39.126 -136.436,-79.578 v-22.611 c7.971,9.677 18.8,18.57 32.252,26.317 c29.563,17.029 69.173,27.038 111.532,28.183 l0.43200000000000005,-15.994 c-39.749,-1.075 -76.676,-10.327 -103.978,-26.053 c-25.948,-14.942 -40.238,-34.068 -40.238,-53.842 v-22.6 c8.505,10.309 20.267,19.725 35.008,27.832 c31.381,17.268 72.93,26.768 116.992,26.768 c13.757,0.012000000000000002 27.498,-0.9410000000000001 41.121,-2.8520000000000003 l-2.242,-15.841 c-12.881,1.8050000000000002 -25.872,2.705 -38.879,2.693 c-41.412,0 -80.223,-8.8 -109.281,-24.784 c-27.548000000000002,-15.152 -42.719,-34.76 -42.719,-55.216 s15.171,-40.064 42.719,-55.216 c29.058,-15.984 67.869,-24.784 109.281,-24.784 s80.223,8.8 109.281,24.784 c27.548000000000002,15.152 42.719,34.76 42.719,55.216 c0,17.644 -11.722,35.167 -33.007,49.341 l8.869,13.318 c9.056,-5.894 17.19,-13.096 24.138,-21.372 v14.713000000000001 h16 v-56 c0,-26.556 -18.115,-51.144 -51.008,-69.235 c-31.381,-17.26 -72.93,-26.765 -116.992,-26.765 s-85.611,9.5 -116.992,26.765 c-32.893,18.091 -51.008,42.679 -51.008,69.235 v192.96 c0,26.167 18.118,50.467 51.018,68.422 z" id="svg_2" class="" fill="#04b804" fill-opacity="1" stroke="#000000" stroke-opacity="1"/><path d="m106.162 56.005c4.95-1.389 10.125-2.619 15.382-3.653l-3.09-15.7c-5.67 1.116-11.26 2.444-16.616 3.948z" id="svg_3" class="" fill="#04b804" fill-opacity="1" stroke="#000000" stroke-opacity="1"/><path d="m32 96h16c0-9.168 14.727-24.115 42.873-34.944l-5.746-14.933c-32.77 12.607-53.127 31.719-53.127 49.877z" id="svg_4" class="" fill="#04b804" fill-opacity="1" stroke="#000000" stroke-opacity="1"/><path d="m160 208h16v16h-16z" id="svg_5" class="" fill="#04b804" fill-opacity="1" stroke="#000000" stroke-opacity="1"/><path d="m128 208h16v16h-16z" id="svg_6" class="" fill="#04b804" fill-opacity="1" stroke="#000000" stroke-opacity="1"/><path d="m128 272h16v16h-16z" id="svg_7" class="" fill="#04b804" fill-opacity="1" stroke="#000000" stroke-opacity="1"/><path d="m128 336h16v16h-16z" id="svg_8" class="" fill="#04b804" fill-opacity="1" stroke="#000000" stroke-opacity="1"/><path d="m419.321 376.007c13.539-21.574 20.708-46.536 20.679-72.007 0-74.991-61.01-136-136-136s-136 61.009-136 136 61.01 136 136 136c25.471.029 50.432-7.14 72.007-20.679l51.709 51.708c11.961 11.961 31.353 11.961 43.314.001 11.961-11.961 11.961-31.353 0-43.314zm-115.321 47.993c-66.274 0-120-53.726-120-120s53.726-120 120-120 120 53.726 120 120c-.075 66.243-53.757 119.925-120 120zm145.373 40c-3.882.011-7.606-1.532-10.343-4.284l-49.811-49.811c7.613-6.139 14.547-13.073 20.686-20.686l49.811 49.81c5.712 5.713 5.712 14.975-.001 20.687-2.743 2.743-6.463 4.284-10.342 4.284z" id="svg_9" class="" fill="#04b804" fill-opacity="1" stroke="#000000" stroke-opacity="1"/><path d="m304 200c-57.438 0-104 46.562-104 104s46.562 104 104 104 104-46.562 104-104c-.065-57.41-46.589-103.935-104-104zm78.372 64c5.111 9.974 8.256 20.838 9.261 32h-44.319l-13.657-13.657c-3.124-3.124-8.189-3.124-11.314 0-1.5 1.5-2.343 3.535-2.343 5.657v8h-32c-3.336-.001-6.322 2.069-7.493 5.193l-21.194-21.193 21.194-21.193c1.171 3.124 4.157 5.194 7.493 5.193zm-78.372-48c26.257-.005 51.139 11.733 67.833 32h-75.833v-8c0-4.418-3.581-8-8-8-2.122 0-4.157.843-5.657 2.343l-40 40c-3.124 3.124-3.124 8.189 0 11.314l10.343 10.343h-36.319c4.19-45.285 42.154-79.943 87.633-80zm-78.372 128c-5.111-9.974-8.256-20.838-9.261-32h52.319l13.657 13.657c3.124 3.124 8.189 3.124 11.314 0 1.5-1.5 2.343-3.535 2.343-5.657v-8h32c3.336.001 6.322-2.069 7.493-5.193l21.194 21.193-21.194 21.193c-1.171-3.124-4.157-5.193-7.493-5.193zm78.372 48c-26.257.005-51.139-11.733-67.833-32h83.833v8c0 4.418 3.581 8 8 8 2.122 0 4.157-.843 5.657-2.343l40-40c3.124-3.124 3.124-8.189 0-11.314l-10.343-10.343h28.319c-4.19 45.286-42.154 79.943-87.633 80z" id="svg_10" class="" fill="#04b804" fill-opacity="1" stroke="#000000" stroke-opacity="1"/></g></svg>